<svg width="24" height="24" viewBox="0 0 24 24" fill="none" xmlns="http://www.w3.org/2000/svg">
<path d="M20.5169 16.5149C19.8179 16.5249 18.9989 16.6719 18.3729 17.1069C18.1809 17.2409 18.2089 17.4279 18.4229 17.4029C19.1279 17.3189 20.6859 17.1219 20.9659 17.4769C21.2459 17.8319 20.6559 19.2919 20.3929 19.9449C20.3129 20.1419 20.4869 20.2179 20.6669 20.0679C21.8399 19.0959 22.1539 17.0799 21.9139 16.7849C21.7949 16.6409 21.2169 16.5049 20.5169 16.5149ZM2.14094 16.8849C1.99494 16.9039 1.93694 17.0929 2.09094 17.2309C4.69894 19.5619 8.13794 20.9579 11.9649 20.9579C14.6949 20.9579 17.8819 20.1119 20.0689 18.5139C20.4299 18.2489 20.1149 17.8399 19.7449 17.9959C17.2929 19.0259 14.6139 19.5259 12.1899 19.5259C8.59594 19.5259 5.12894 18.5549 2.31594 16.9339C2.25394 16.8989 2.18894 16.8789 2.14094 16.8849Z" fill="currentColor"/>
<path fill-rule="evenodd" clip-rule="evenodd" d="M12.5603 5C10.7539 5 8.74745 5.67593 8.32525 7.88527C8.27986 8.12044 8.44421 8.24146 8.59961 8.27584L10.4342 8.46287C10.6068 8.45393 10.7443 8.29303 10.7773 8.12319C10.9355 7.36199 11.5798 6.98586 12.3032 6.98586C12.6937 6.98586 13.1352 7.13232 13.3662 7.4782C13.6004 7.81735 13.5951 8.26244 13.5903 8.66889C13.5897 8.72556 13.589 8.78148 13.589 8.83625V9.09067C13.4091 9.11067 13.2203 9.12941 13.0258 9.14871C12.0298 9.24752 10.8842 9.36117 10.023 9.73567C8.8334 10.2445 8 11.2821 8 12.808C8 14.7601 9.24804 15.7441 10.8461 15.7441C12.1959 15.7441 12.9248 15.4203 13.9665 14.3696C14.0139 14.4375 14.0571 14.5007 14.098 14.5605C14.3543 14.9355 14.5202 15.1781 15.064 15.6259C15.2056 15.7008 15.3844 15.6864 15.5095 15.575V15.5922C15.8884 15.258 16.5795 14.6584 16.9666 14.3359C17.1206 14.2107 17.0876 14.0147 16.9666 13.8435C16.9363 13.8021 16.906 13.7614 16.8758 13.7208C16.5601 13.2967 16.2639 12.8989 16.2639 12.0949V9.17525C16.2639 9.07991 16.2644 8.98512 16.2648 8.89097C16.2707 7.7601 16.2761 6.7215 15.4236 5.93311C14.6947 5.24136 13.4831 5 12.5603 5ZM13.4172 10.5989C13.4744 10.6001 13.5317 10.6014 13.589 10.6014V11.0084C13.589 11.0591 13.5891 11.1092 13.5893 11.1587C13.5912 11.8244 13.5928 12.3882 13.2459 12.9943C12.944 13.5231 12.4586 13.8428 11.9256 13.8428C11.1975 13.8428 10.7766 13.2982 10.7766 12.4848C10.7766 11.0854 11.8768 10.6791 13.0747 10.6014C13.1888 10.594 13.3029 10.5965 13.4172 10.5989Z" fill="currentColor"/>
</svg>
