<svg width="503" height="344" viewBox="0 0 503 360" fill="none" xmlns="http://www.w3.org/2000/svg">
<path id="hero-img-right" fill-rule="evenodd" clip-rule="evenodd" d="M436.807 35.3304C436.807 16.3702 451.306 1 469.191 1C487.077 1 501.576 16.3702 501.576 35.3304C501.576 54.2905 487.077 69.6607 469.191 69.6607C460.694 69.6607 452.961 66.1915 447.184 60.5163L407.743 84.6606C408.25 87.0723 408.517 89.5796 408.517 92.153C408.517 94.9748 408.196 97.717 407.59 100.341L447.184 124.579C452.961 118.904 460.694 115.435 469.191 115.435C487.077 115.435 501.576 130.805 501.576 149.765C501.576 168.725 487.077 184.095 469.191 184.095C451.306 184.095 436.807 168.725 436.807 149.765C436.807 146.943 437.128 144.201 437.734 141.577L398.139 117.339C392.362 123.014 384.63 126.483 376.132 126.483C358.247 126.483 343.748 111.113 343.748 92.153C343.748 73.1929 358.247 57.8227 376.132 57.8227C384.871 57.8227 392.802 61.4922 398.628 67.4572L437.734 43.5182C437.128 40.8943 436.807 38.1521 436.807 35.3304ZM469.191 20.7301C461.585 20.7301 455.419 27.2669 455.419 35.3304C455.419 43.3939 461.585 49.9306 469.191 49.9306C476.798 49.9306 482.964 43.3939 482.964 35.3304C482.964 27.2669 476.798 20.7301 469.191 20.7301ZM387.667 84.1711C385.207 80.1858 380.96 77.5527 376.132 77.5527C368.526 77.5527 362.36 84.0895 362.36 92.153C362.36 100.217 368.526 106.753 376.132 106.753C383.739 106.753 389.905 100.217 389.905 92.153C389.905 89.9526 389.446 87.8659 388.624 85.9947C388.465 85.7553 388.315 85.5064 388.174 85.2482C387.982 84.8959 387.813 84.5362 387.667 84.1711ZM455.419 149.765C455.419 141.701 461.585 135.165 469.191 135.165C476.798 135.165 482.964 141.701 482.964 149.765C482.964 157.828 476.798 164.365 469.191 164.365C461.585 164.365 455.419 157.828 455.419 149.765Z" stroke="#584574" stroke-width="2" stroke-linecap="round" stroke-linejoin="round" stroke-dasharray="4 4"/>
<path id="hero-img-left" fill-rule="evenodd" clip-rule="evenodd" d="M161.598 65.1983C175.369 78.3938 176.795 100.722 164.784 115.07C158.24 122.888 149.056 126.723 139.824 126.46L133.548 173.528C146.385 181.143 153.245 196.744 149.285 211.716C147.004 220.337 141.557 227.159 134.539 231.286L145.433 276.458C147.69 276.588 149.968 276.98 152.234 277.653C168.932 282.617 178.673 300.99 173.991 318.692C169.308 336.393 151.976 346.719 135.278 341.755C121.029 337.52 111.846 323.518 112.369 308.502L69.8845 282.865C62.1701 290.03 51.3021 293.051 40.6902 289.896C23.9922 284.933 14.2516 266.559 18.9338 248.858C23.616 231.157 40.948 220.831 57.646 225.794C74.2796 230.739 84.0094 248.99 79.4558 266.628L118.364 290.107C120.936 286.364 124.197 283.27 127.896 280.975L116.967 235.657C114.333 235.542 111.663 235.104 109.003 234.313C91.4384 229.092 80.9951 210.509 85.6773 192.808C89.4093 178.699 101.624 169.409 115.323 168.863L121.806 120.25C120.525 119.323 119.287 118.292 118.102 117.156C117.33 116.417 116.597 115.648 115.902 114.854L68.5865 128.012C70.1602 138.528 67.3866 149.791 60.1291 158.46C47.5117 173.53 26.1198 175.052 12.3491 161.858C-1.42164 148.664 -2.35659 125.751 10.2608 110.68C22.8783 95.609 44.2701 94.0876 58.0408 107.282C58.8124 108.021 59.5437 108.791 60.2346 109.588L107.284 96.5043C105.576 86.2873 108.052 75.4832 114.915 67.2847C126.926 52.9369 147.827 52.0028 161.598 65.1983ZM150.454 101.339C155.562 95.2366 154.955 85.7407 149.099 80.1288C143.242 74.5169 134.353 74.9142 129.245 81.0161C124.137 87.1181 124.744 96.614 130.601 102.226C136.457 107.838 145.346 107.44 150.454 101.339ZM139.746 296.2C135.593 297.59 132.162 301.104 130.898 305.882C128.907 313.41 133.049 321.224 140.151 323.335C147.252 325.446 154.623 321.055 156.615 313.527C158.606 305.998 154.463 298.184 147.362 296.074C145.424 295.498 143.466 295.406 141.603 295.73C141.351 295.824 141.092 295.907 140.828 295.979C140.467 296.077 140.106 296.15 139.746 296.2ZM45.7991 144.73C51.1652 138.32 50.7675 128.576 44.911 122.964C39.0545 117.353 29.9568 118 24.5908 124.41C19.2248 130.819 19.6224 140.564 25.4789 146.175C31.3354 151.786 40.4331 151.139 45.7991 144.73ZM113.875 215.893C106.405 213.672 101.964 205.77 103.955 198.241C105.947 190.713 113.616 186.411 121.087 188.631C128.557 190.852 132.998 198.754 131.007 206.283C129.015 213.811 121.345 218.113 113.875 215.893ZM36.3098 254.023C34.3185 261.551 38.4611 269.365 45.5625 271.476C52.6639 273.587 60.035 269.196 62.0263 261.668C64.0176 254.139 59.875 246.325 52.7736 244.215C45.6722 242.104 38.3011 246.495 36.3098 254.023Z" stroke="#584574" stroke-width="2" stroke-linecap="round" stroke-linejoin="round" stroke-dasharray="4 4"/>
<path id="hero-img-locker" fill-rule="evenodd" clip-rule="evenodd" d="M202.919 136.513V98.105C202.919 79.4765 209.919 61.6164 222.371 48.4522C234.822 35.289 251.703 27.8988 269.301 27.8988C286.898 27.8988 303.78 35.289 316.231 48.4522C328.683 61.6164 335.683 79.4765 335.683 98.105V136.513H349.207C366.932 136.513 381.344 151.711 381.344 170.514V254.992C381.344 273.796 366.932 288.994 349.207 288.994H189.394C171.67 288.994 157.258 273.796 157.258 254.992V170.514C157.258 151.711 171.67 136.513 189.394 136.513H202.919ZM235.513 62.4225C244.47 52.9534 256.623 47.6289 269.301 47.6289C281.978 47.6289 294.132 52.9534 303.088 62.4225C312.044 71.8907 317.071 84.7266 317.071 98.105V136.513H221.531V98.105C221.531 84.7266 226.557 71.8907 235.513 62.4225ZM189.394 156.243C181.901 156.243 175.87 162.658 175.87 170.514V254.992C175.87 262.849 181.901 269.264 189.394 269.264H349.207C356.701 269.264 362.732 262.849 362.732 254.992V170.514C362.732 162.658 356.701 156.243 349.207 156.243H189.394Z" stroke="#584574" stroke-width="2" stroke-linecap="round" stroke-linejoin="round" stroke-dasharray="4 4"/>
<g clip-path="url(#clip0_24_9965)" id="hero-img-girl">
  <g id="hero-img-girl-body">
    <path d="M303.429 274.034L299.887 283.3L262.641 273.978L267.869 260.301L303.429 274.034Z" fill="#8463B3"/>
    <path d="M313.269 275.122L301.848 305L301.472 304.855C298.403 303.67 295.929 301.308 294.592 298.289C293.256 295.271 293.168 291.842 294.346 288.757L294.347 288.757L301.322 270.508L313.269 275.122Z" fill="black"/>
    <path d="M239.613 233.645C239.35 235.318 238.968 236.97 238.47 238.588C237.91 240.172 237.045 241.637 236.532 243.237C234.899 248.338 237.163 254.025 240.78 257.963C243.916 261.363 247.964 263.779 252.436 264.919C255.698 265.744 259.091 265.863 262.453 265.977C271.763 266.295 281.313 266.578 290.134 263.571C292.922 262.598 295.614 261.369 298.177 259.899C298.986 259.512 299.699 258.947 300.264 258.248C300.936 257.285 301.023 256.036 301.017 254.86C300.997 250.893 300.197 246.946 300.387 242.984C300.492 240.789 300.901 238.596 300.699 236.408C300.421 233.923 299.385 231.586 297.734 229.715C296.083 227.844 293.897 226.532 291.475 225.959C288.973 225.419 286.377 225.713 283.829 225.959C277.216 226.598 270.574 226.896 263.93 226.853C257.142 226.81 250.395 225.768 243.641 225.66C241.643 225.627 241.683 226.246 241.047 228.189C240.462 229.978 239.983 231.8 239.613 233.645Z" fill="black"/>
    <path d="M213.068 230.421C211.242 229.96 209.361 229.759 207.48 229.824C205.504 229.934 203.573 230.466 201.817 231.383C200.061 232.301 198.519 233.584 197.294 235.147C196.07 236.71 195.19 238.517 194.714 240.448C194.238 242.38 194.176 244.39 194.533 246.347C194.989 248.467 195.734 250.513 196.747 252.428C198.229 255.451 200.006 258.466 202.75 260.403C204.354 261.536 206.212 262.242 208.047 262.937L222.494 268.407C224.62 269.212 226.746 270.017 228.892 270.763C239.676 274.51 250.918 276.756 262.308 277.44C265.777 277.648 269.299 277.706 272.683 276.912C273.486 276.723 274.343 276.443 274.808 275.758C275.083 275.276 275.246 274.737 275.283 274.182L276.172 267.926C276.297 267.046 276.417 266.119 276.096 265.289C275.689 264.238 274.668 263.577 273.695 263.015C264.196 257.532 253.106 254.507 245.111 246.981C243.229 245.21 241.654 242.401 239.367 241.198C236.774 239.833 233.72 239.054 231.039 237.797C225.18 235.048 219.418 231.889 213.068 230.421Z" fill="black"/>
    <path opacity="0.1" d="M227.491 238.855C232.598 240.463 254.159 251.605 257.854 255.496C257.359 255.675 240.552 246.208 240.048 246.056C235.464 244.673 230.854 243.282 226.501 241.258C225.625 240.851 220.811 238.937 221.029 237.827C221.275 236.574 226.585 238.569 227.491 238.855Z" fill="black"/>
    <path fill-rule="evenodd" clip-rule="evenodd" d="M244.562 152.19L258.311 141.697L283.4 141.045L292.083 148.66C292.083 148.66 296.413 147.79 303.34 150.836C305.139 151.627 305.695 156.875 305.534 164.214L310.747 194.507C310.842 196.973 310.43 199.432 309.538 201.731C308.645 204.031 307.291 206.12 305.559 207.87C304.11 209.334 302.424 210.534 300.575 211.419C299.546 218.395 298.769 223.072 298.769 223.072L301.608 238.306C288.551 241.445 274.909 241.151 261.997 237.453L238.1 230.609L236.903 216.178C235.458 215.86 234.099 215.189 232.953 214.208C231.144 212.659 230.011 210.459 229.795 208.08L230.556 162.202C230.552 162.122 230.547 162.044 230.543 161.968C230.518 161.488 230.533 161.031 230.583 160.597L230.601 159.54L230.791 159.522C232.704 152.563 244.562 152.19 244.562 152.19Z" fill="#E5E5E5"/>
    <path d="M289.918 143.873H252.249V189.567H289.918V143.873Z" fill="black"/>
    <path d="M254.325 273.599L257.868 282.865L295.114 273.543L289.886 259.866L254.325 273.599Z" fill="#8463B3"/>
    <path d="M256.432 270.073L263.408 288.322L263.408 288.322C264.587 291.407 264.498 294.835 263.162 297.854C261.826 300.873 259.351 303.235 256.283 304.42L255.907 304.565L244.485 274.686L256.432 270.073Z" fill="black"/>
    <path d="M328.777 226.874C331.769 226.12 334.871 225.907 337.937 226.245C340.386 226.517 342.909 227.202 344.697 228.905C346.873 230.979 347.573 234.186 347.631 237.199C347.727 243.201 345.746 249.05 342.027 253.747C341.119 254.935 340.04 255.98 338.824 256.847C337.512 257.672 336.115 258.349 334.656 258.866L302.301 271.693C293.789 275.067 285.247 278.451 276.368 280.676C275.885 280.91 275.33 280.942 274.824 280.765C274.318 280.587 273.903 280.215 273.669 279.73C273.662 279.715 273.655 279.7 273.649 279.685C270.814 275.615 268.436 271.242 266.557 266.647C266.468 266.538 266.407 266.409 266.378 266.27C266.349 266.132 266.354 265.989 266.392 265.853C266.43 265.718 266.5 265.593 266.596 265.49C266.692 265.387 266.811 265.309 266.944 265.262L289.829 252.046C291.468 251.099 293.126 250.139 294.487 248.82C295.476 247.857 296.286 246.724 296.878 245.474C297.352 244.478 297.397 242.128 298.003 241.392C298.596 240.671 300.625 240.614 301.563 240.33C302.885 239.923 304.179 239.431 305.438 238.858C310.557 236.556 315.116 233.212 320.023 230.516C322.776 228.935 325.717 227.711 328.777 226.874Z" fill="black"/>
    <path opacity="0.1" d="M315.803 236.744C311.871 239.712 306.78 242.44 302.883 245.487C301.553 246.526 279.383 259.054 279.07 260.718C282.705 261.333 305.864 245.05 309.177 243.425C312.49 241.8 315.427 239.509 318.338 237.235C319.08 236.655 322.223 234.913 320.094 234.265C318.894 233.9 316.688 236.151 315.803 236.744Z" fill="black"/>
    <path opacity="0.17" d="M239.26 173.03L239.78 168.996C239.78 168.996 259.177 170.419 256.146 175.206C253.115 179.993 245.755 180.428 245.755 180.428L239.26 173.03Z" fill="black"/>
    <path d="M253.902 155.489C255.013 155.612 256.083 155.981 257.036 156.569C257.988 157.157 258.799 157.949 259.411 158.89C259.969 159.748 260.348 160.71 260.526 161.719C260.704 162.728 260.677 163.763 260.447 164.761C260.217 165.759 259.789 166.701 259.188 167.529C258.588 168.357 257.826 169.054 256.951 169.579C256.629 169.769 256.294 169.935 255.948 170.074L244.026 206.728C243.68 207.451 243.196 208.098 242.601 208.633C242.005 209.167 241.311 209.578 240.557 209.842C239.803 210.106 239.005 210.217 238.208 210.17C237.411 210.123 236.632 209.918 235.914 209.567C235.196 209.215 234.555 208.725 234.026 208.124C233.498 207.523 233.092 206.822 232.834 206.063C232.576 205.304 232.469 204.501 232.521 203.701C232.572 202.9 232.78 202.118 233.134 201.398L245.813 165.151C245.468 163.952 245.422 162.686 245.679 161.464C245.937 160.243 246.49 159.104 247.29 158.149C248.089 157.194 249.111 156.451 250.264 155.987C251.418 155.523 252.667 155.352 253.902 155.489Z" fill="#8463B3"/>
    <path d="M239.438 169.34C239.438 169.34 246.27 181.071 256.146 175.206L246.575 212.021H238.51L230.168 210.455L232.504 195.245L239.438 169.34Z" fill="#E5E5E5"/>
    <path d="M288.217 177.358L282.558 169.549C282.558 169.549 285.278 161.449 295.824 164.411C295.824 164.411 302.536 179.51 288.217 177.358Z" fill="#E5E5E5"/>
    <path opacity="0.17" d="M288.217 177.358L282.558 169.549C282.558 169.549 285.278 161.449 295.824 164.411C295.824 164.411 302.536 179.51 288.217 177.358Z" fill="black"/>
    <path d="M289.715 150.074C291.348 150.837 292.654 152.164 293.396 153.812C294.137 155.461 294.266 157.323 293.757 159.059L306.436 195.306C306.789 196.025 306.998 196.808 307.049 197.608C307.101 198.409 306.994 199.212 306.736 199.971C306.478 200.73 306.072 201.431 305.544 202.032C305.015 202.633 304.374 203.123 303.656 203.475C302.938 203.826 302.159 204.031 301.362 204.078C300.565 204.125 299.767 204.014 299.013 203.75C298.259 203.486 297.564 203.075 296.969 202.541C296.374 202.006 295.89 201.359 295.544 200.635L283.622 163.982C283.275 163.842 282.94 163.677 282.619 163.486C281.743 162.961 280.982 162.264 280.381 161.436C279.78 160.608 279.352 159.667 279.122 158.669C278.893 157.67 278.866 156.636 279.044 155.627C279.222 154.618 279.601 153.655 280.159 152.797C280.77 151.857 281.582 151.064 282.534 150.476C283.487 149.889 284.557 149.52 285.668 149.397C287.054 149.239 288.455 149.474 289.715 150.074Z" fill="#8463B3"/>
    <path d="M282.558 169.549C282.558 169.549 291.895 175.243 295.824 164.411L308.982 199.231L305.072 206.103L304.507 206.151C302.174 206.346 299.83 205.97 297.674 205.054C295.518 204.137 293.616 202.709 292.131 200.891C289.101 197.183 287.039 192.775 286.13 188.065L282.558 169.549Z" fill="#E5E5E5"/>
  </g>
  <g id="hero-img-girl-head">
    <path d="M299.011 124.749C299.011 138.37 286.479 136.31 271.021 136.31C255.562 136.31 243.031 138.37 243.031 124.749C243.031 111.128 249.152 86.9825 271.021 86.9825C293.643 86.9825 299.011 111.128 299.011 124.749Z" fill="black"/>
    <path d="M285.571 129.365C292.926 121.972 292.926 109.986 285.571 102.594C278.215 95.201 266.29 95.201 258.934 102.594C251.579 109.986 251.579 121.972 258.934 129.365C266.29 136.758 278.215 136.758 285.571 129.365Z" fill="#8463B3"/>
    <path d="M249.166 115.5H256.615L259.901 106.251L260.559 115.5H264.119L266.036 110.105L266.42 115.5H292.876C292.876 110.185 290.775 105.088 287.036 101.33C283.297 97.572 278.226 95.4607 272.938 95.4607H269.104C263.816 95.4607 258.744 97.572 255.005 101.33C251.266 105.088 249.166 110.185 249.166 115.5Z" fill="black"/>
  </g>
</g>
<defs>
<clipPath id="clip0_24_9965">
<rect width="281" height="261" fill="white" transform="translate(126 44)"/>
</clipPath>
</defs>
</svg>
