<svg width="150" height="150" viewBox="0 0 150 150" fill="none" xmlns="http://www.w3.org/2000/svg">
<g clip-path="url(#clip0_137_2)">
<path d="M8.99524 63.239L0.486328 65.229L0.786643 63.6512L8.46612 61.8887L8.29451 62.8126L1.74479 58.4063L2.0165 56.9849L9.26696 61.8176L8.99524 63.239Z" fill="currentColor"/>
<path d="M9.89607 54.1845L11.3261 49.9203L12.5131 50.3041L10.6111 55.9897L3.03174 53.4596L4.89083 47.9446L6.07779 48.3426L4.64772 52.4504L9.89607 54.1845ZM6.62121 53.218L7.87967 49.4655L9.05233 49.8493L7.77957 53.6017L6.62121 53.218Z" fill="currentColor"/>
<path d="M13.8144 47.2908L6.66406 43.6947L8.09413 40.7666C8.37422 40.2243 8.75796 39.7415 9.22389 39.3452C9.62845 39.0064 10.1273 38.7981 10.654 38.7482C11.1928 38.7039 11.7333 38.8123 12.2127 39.0609C12.6783 39.2922 13.0634 39.6569 13.3183 40.1079C13.5732 40.5589 13.6863 41.0755 13.6428 41.591C13.5959 42.2076 13.4206 42.8078 13.128 43.3535L12.1126 45.4998L11.8123 44.6186L14.4865 45.9689L13.8144 47.2908ZM11.9553 44.6896L11.0258 44.9455L12.0983 42.8276C12.3721 42.3756 12.4736 41.841 12.3843 41.3209C12.331 41.1069 12.2283 40.9082 12.0843 40.7404C11.9404 40.5727 11.7591 40.4405 11.5549 40.3544C11.3657 40.2455 11.1538 40.1812 10.9356 40.1664C10.7175 40.1516 10.4988 40.1867 10.2964 40.2691C9.82703 40.5105 9.45763 40.9079 9.25249 41.392L8.16564 43.5241L7.80812 42.657L11.9553 44.6896ZM16.2455 42.6428L12.7276 43.1261L13.4569 41.7047L16.9034 41.2357L16.2455 42.6428Z" fill="currentColor"/>
<path d="M23.8822 31.7124C23.5076 32.1621 23.0517 32.5381 22.5379 32.8211C22.0567 33.0882 21.5268 33.2573 20.9791 33.3186C20.4495 33.3732 19.9143 33.32 19.406 33.1622C18.3271 32.8212 17.4276 32.0702 16.9034 31.0728C16.6612 30.5996 16.52 30.0818 16.4887 29.5519C16.447 29.0075 16.52 28.4604 16.7032 27.9457C16.8985 27.3945 17.1942 26.8838 17.5756 26.439C17.9501 25.9893 18.406 25.6132 18.9198 25.3303C19.3951 25.0614 19.9207 24.8921 20.4643 24.8328C20.9939 24.7853 21.5277 24.8383 22.0374 24.9892C23.1159 25.345 24.0165 26.0978 24.5543 27.0928C24.7943 27.5677 24.9399 28.0841 24.9833 28.6137C25.0141 29.1542 24.9363 29.6954 24.7545 30.2057C24.5623 30.7583 24.2662 31.2695 23.8822 31.7124ZM22.8811 30.8738C23.1381 30.5897 23.3329 30.2558 23.4531 29.893C23.5552 29.5522 23.594 29.1958 23.5675 28.8412C23.5384 28.4833 23.4362 28.1351 23.2672 27.8178C22.8902 27.145 22.2726 26.6377 21.5368 26.3964C21.1953 26.2828 20.8342 26.2394 20.4753 26.2687C20.1164 26.2981 19.7672 26.3995 19.4489 26.5669C19.114 26.7506 18.8178 26.9967 18.5766 27.2918C18.3269 27.581 18.1329 27.9135 18.0046 28.2726C17.8889 28.6155 17.8499 28.9793 17.8902 29.3386C17.92 29.6946 18.017 30.0418 18.1762 30.3621C18.3569 30.7018 18.605 31.0016 18.9055 31.2433C19.2007 31.4897 19.5405 31.6778 19.9066 31.7977C20.2521 31.9101 20.6166 31.9536 20.9791 31.9256C21.3414 31.8982 21.693 31.7914 22.0088 31.6129C22.3468 31.4275 22.6435 31.1761 22.8811 30.8738ZM26.8281 30.7743C26.4526 31.2177 25.9559 31.5436 25.398 31.7124C25.0897 31.8314 24.768 31.9125 24.4399 31.954C24.0824 31.954 23.6533 32.0393 23.1814 32.0677L23.8822 30.6463C24.1864 30.6772 24.4931 30.6772 24.7974 30.6463C25.0235 30.6253 25.2427 30.5575 25.4409 30.4473C25.615 30.3654 25.7707 30.2494 25.8986 30.1062C26.0606 29.91 26.1788 29.6818 26.2454 29.4368C26.3119 29.1917 26.3253 28.9354 26.2847 28.6848H27.3572C27.4312 29.0503 27.4221 29.4275 27.3306 29.7891C27.239 30.1506 27.0674 30.4872 26.8281 30.7743Z" fill="currentColor"/>
<path d="M31.5616 24.0084C31.2216 24.3314 30.8198 24.5834 30.3802 24.7494C29.9405 24.9154 29.4718 24.9921 29.0017 24.975C28.5175 24.9117 28.0507 24.7534 27.6285 24.5094C27.2063 24.2654 26.837 23.9405 26.542 23.5536L23.6819 20.1422L24.8116 19.1899L27.6718 22.5444C28.0486 23.0694 28.61 23.4347 29.2449 23.5678C29.522 23.5809 29.7989 23.5386 30.0593 23.4433C30.3197 23.3481 30.5582 23.2019 30.7607 23.0134C30.9823 22.8433 31.1655 22.629 31.2985 22.3841C31.4315 22.1393 31.5114 21.8695 31.533 21.592C31.4827 20.9541 31.1976 20.3569 30.7321 19.9148L27.872 16.5461L28.9731 15.5938L31.9191 18.9909C32.5814 19.7101 32.931 20.6604 32.8915 21.6347C32.8404 22.0985 32.6964 22.5475 32.468 22.9552C32.2396 23.3629 31.9314 23.721 31.5616 24.0084Z" fill="currentColor"/>
<path d="M36.0806 20.1707L34.908 11.5144L36.1521 10.7468L43.4455 15.6506L42.1155 16.4751L35.7517 11.955L36.2522 11.6423L37.4392 19.3747L36.0806 20.1707ZM36.5096 17.7259L36.2379 16.5319L39.8989 14.2292L40.857 14.9968L36.5096 17.7259Z" fill="currentColor"/>
<path d="M45.7621 14.4424L42.7161 7.12216L45.9623 5.70077C46.6808 5.38306 47.4655 5.24169 48.2504 5.28856C48.9562 5.32252 49.6369 5.55955 50.2096 5.97083C50.7978 6.42827 51.2399 7.04545 51.4824 7.74758C51.8132 8.43727 51.9374 9.20704 51.8399 9.96496C51.7301 10.6588 51.428 11.3085 50.9676 11.8412C50.4455 12.4227 49.7943 12.8753 49.0656 13.1631L45.7621 14.4424ZM46.6488 12.7225L48.4363 11.9833C48.9389 11.7844 49.3854 11.4674 49.7377 11.0594C50.0515 10.697 50.2549 10.2533 50.324 9.78018C50.3717 9.29471 50.2929 8.80522 50.0952 8.35878C49.9395 7.87451 49.6465 7.44516 49.2515 7.12216C48.8671 6.84179 48.4113 6.67434 47.9358 6.63889C47.395 6.61261 46.8557 6.71494 46.3627 6.93738L44.5752 7.67651L46.6488 12.7225Z" fill="currentColor"/>
<path d="M56.1873 10.491L54.3425 2.75856L57.5316 1.97679C58.1371 1.81277 58.7709 1.77885 59.3907 1.87729C59.9255 1.9473 60.4252 2.18074 60.8207 2.54535C61.2121 2.93216 61.4763 3.42772 61.5787 3.96674C61.7416 4.47908 61.7381 5.0294 61.5687 5.53966C61.3993 6.04992 61.0726 6.49422 60.6348 6.80954C60.1323 7.17939 59.5575 7.44082 58.9474 7.57709L56.5448 8.14565L57.0311 7.36388L57.7318 10.2067L56.1873 10.491ZM56.9596 7.39231L56.1587 6.85218L58.4897 6.29783C59.0106 6.20675 59.4819 5.93472 59.8197 5.53028C59.9553 5.35496 60.0479 5.1506 60.0901 4.93345C60.1323 4.71631 60.123 4.49237 60.0628 4.27945C60.023 4.06466 59.9339 3.86189 59.8024 3.68687C59.671 3.51185 59.5007 3.36929 59.3049 3.27026C58.8117 3.08592 58.2679 3.08592 57.7747 3.27026L55.4437 3.8246L55.9013 2.97177L56.9596 7.39231ZM61.2498 9.25434L58.6327 6.92325L60.1772 6.55369L62.8371 8.87056L61.2498 9.25434Z" fill="currentColor"/>
<path d="M69.6731 8.18821C69.0868 8.24545 68.4949 8.19241 67.9284 8.03186C67.4079 7.8732 66.9226 7.61754 66.4983 7.27852C66.0845 6.93917 65.7398 6.52424 65.483 6.05612C65.2322 5.55925 65.0816 5.01845 65.0396 4.46415C64.9845 3.92273 65.043 3.37583 65.2112 2.85797C65.3685 2.33388 65.6367 1.84926 65.9978 1.43658C66.364 1.0331 66.8061 0.704742 67.2991 0.470027C67.8323 0.212586 68.4098 0.0582298 69.0009 0.01518C69.5833 -0.0305405 70.1693 0.0272175 70.7313 0.185748C71.2545 0.330569 71.7416 0.582309 72.1614 0.924874C72.5812 1.25442 72.923 1.67176 73.1624 2.14728C73.4275 2.64449 73.5835 3.19193 73.6201 3.75345C73.6673 4.30986 73.6041 4.87007 73.4341 5.40227C73.2714 5.92409 73.0038 6.40765 72.6476 6.82367C72.2861 7.22247 71.8486 7.54614 71.3605 7.77601C70.8312 8.02342 70.2575 8.16355 69.6731 8.18821ZM69.5587 6.89474C69.9404 6.86956 70.314 6.77312 70.6598 6.61046C70.9823 6.4509 71.2692 6.22855 71.5035 5.95662C71.7317 5.68332 71.9063 5.36994 72.0184 5.03271C72.1347 4.6606 72.1784 4.2698 72.1471 3.88138C72.0977 3.52576 71.9915 3.18027 71.8325 2.85797C71.6743 2.53595 71.4503 2.25031 71.1746 2.01935C70.8988 1.76896 70.5788 1.57138 70.2308 1.43658C69.8639 1.3327 69.4814 1.2942 69.101 1.32287C68.7175 1.34782 68.343 1.44934 67.9999 1.62136C67.6652 1.77623 67.3658 1.99727 67.1199 2.27098C66.874 2.54469 66.6869 2.86533 66.5698 3.21332C66.4784 3.56099 66.4541 3.92272 66.4983 4.27937C66.5312 4.66094 66.6381 5.03259 66.8129 5.37385C66.9833 5.69615 67.211 5.9851 67.4851 6.22668C67.7576 6.45702 68.0736 6.63098 68.4146 6.73839C68.7823 6.86288 69.1707 6.91596 69.5587 6.89474Z" fill="currentColor"/>
<path d="M82.1145 8.103L83.373 0.242676L86.8337 0.782807C87.6159 0.892625 88.3607 1.18487 89.0074 1.63564C89.5847 2.0386 90.0358 2.59535 90.3088 3.24182C90.5706 3.93064 90.6446 4.67597 90.5233 5.40235C90.4211 6.1282 90.1192 6.81191 89.651 7.37809C89.19 7.91426 88.5848 8.30871 87.9063 8.51521C87.1561 8.74342 86.3623 8.79213 85.5896 8.65735L82.1145 8.103ZM83.7877 7.12224L85.6897 7.42073C86.2065 7.49928 86.7346 7.4604 87.2342 7.30702C87.6914 7.16155 88.0979 6.89054 88.4068 6.52525C88.7298 6.11391 88.9326 5.62216 88.9931 5.10385C89.0761 4.62593 89.0267 4.13458 88.8501 3.68246C88.6658 3.24505 88.364 2.86644 87.9778 2.58798C87.5509 2.28991 87.0622 2.09077 86.5477 2.00521L84.6457 1.70671L83.7877 7.12224Z" fill="currentColor"/>
<path d="M94.8135 9.439L99.1037 10.8604L98.7176 12.0544L92.9973 10.235L95.4284 2.65894L100.991 4.42147L100.62 5.61544L96.4867 4.27933L94.8135 9.439ZM95.8146 6.16979L99.6042 7.36376L99.1752 8.54352L95.3855 7.32112L95.8146 6.16979Z" fill="currentColor"/>
<path d="M106.297 15.3946L110.258 8.54346L111.56 9.28258L108.213 15.1103L111.86 17.0718L111.231 18.1521L106.297 15.3946Z" fill="currentColor"/>
<path d="M115.564 19.6874L119.154 22.4023L118.396 23.3972L113.619 19.7869L118.467 13.4617L123.115 16.9725L122.357 17.9675L118.882 15.3521L115.564 19.6874ZM117.538 16.9157L120.712 19.3036L119.969 20.2844L116.794 17.8822L117.538 16.9157Z" fill="currentColor"/>
<path d="M120.869 25.6715L126.375 19.9148L127.462 20.924L121.942 26.7091L120.869 25.6715Z" fill="currentColor"/>
<path d="M125.746 30.6605L130.866 26.2968L129.15 24.2926L130.094 23.4824L134.512 28.6137L133.569 29.4239L131.838 27.4197L126.704 31.7834L125.746 30.6605Z" fill="currentColor"/>
<path d="M131.767 38.8478C131.492 38.4702 131.298 38.0413 131.194 37.5869C131.091 37.1326 131.082 36.6622 131.166 36.204C131.303 35.7301 131.536 35.289 131.851 34.9077C132.166 34.5264 132.556 34.213 132.996 33.9866L136.8 31.5845L137.601 32.8211L133.826 35.209C133.252 35.5133 132.813 36.0205 132.596 36.6304C132.545 36.9006 132.549 37.1783 132.608 37.4469C132.667 37.7156 132.779 37.9696 132.939 38.194C133.072 38.4325 133.255 38.6405 133.474 38.8045C133.693 38.9686 133.945 39.085 134.212 39.1463C134.856 39.2111 135.501 39.028 136.014 38.6346L139.775 36.2467L140.562 37.4691L136.7 39.8144C136.308 40.1011 135.861 40.3067 135.387 40.419C134.913 40.5313 134.421 40.5481 133.94 40.4682C133.488 40.3541 133.064 40.1522 132.69 39.8741C132.317 39.5959 132.003 39.2472 131.767 38.8478Z" fill="currentColor"/>
<path d="M135.485 45.0167L142.821 41.8328L144.137 44.8319C144.404 45.3925 144.55 46.0026 144.566 46.6229C144.566 47.1283 144.417 47.6226 144.137 48.0443C143.824 48.4814 143.392 48.8214 142.893 49.025C142.414 49.257 141.874 49.3365 141.348 49.2525C140.814 49.1706 140.316 48.9332 139.918 48.5702C139.467 48.1417 139.111 47.6235 138.874 47.0493L137.887 44.8035L138.76 45.1446L136.014 46.3386L135.485 45.0167ZM137.587 49.7642L139.432 46.765L140.075 48.1864L138.231 51.1998L137.587 49.7642ZM138.674 45.2157L139.074 44.3344L140.032 46.5092C140.209 47.0072 140.559 47.4259 141.019 47.6889C141.217 47.7866 141.435 47.8374 141.656 47.8374C141.876 47.8374 142.094 47.7866 142.292 47.6889C142.502 47.6143 142.692 47.4919 142.846 47.3315C143 47.1711 143.114 46.9771 143.179 46.765C143.281 46.2531 143.205 45.7219 142.964 45.2583L142.006 43.0836L142.936 43.3821L138.674 45.2157Z" fill="currentColor"/>
<path d="M138.946 53.147L147.612 54.5684L147.984 55.9898L141.191 61.519L140.776 60.0123L146.954 55.1938L147.111 55.7623L139.332 54.6394L138.946 53.147ZM141.162 54.2699L142.392 54.3694L143.507 58.5056L142.492 59.1879L141.162 54.2699Z" fill="currentColor"/>
<path d="M141.748 66.5933C141.655 65.9999 141.655 65.3957 141.748 64.8023C141.829 64.3006 142.003 63.8183 142.263 63.3809L143.479 63.7505C143.251 64.1393 143.087 64.5615 142.993 65.0013C142.913 65.4718 142.913 65.9523 142.993 66.4227C143.017 66.7672 143.104 67.1043 143.25 67.4177C143.338 67.6275 143.487 67.8059 143.679 67.9294C143.846 68.0304 144.043 68.0706 144.237 68.0431C144.347 68.0339 144.453 67.9996 144.547 67.9429C144.641 67.8862 144.721 67.8086 144.78 67.7162C144.918 67.4999 145.01 67.2581 145.052 67.0055C145.113 66.6955 145.156 66.3823 145.181 66.0674C145.181 65.7262 145.266 65.3709 145.338 65.0298C145.392 64.697 145.488 64.3723 145.624 64.0632C145.746 63.7674 145.943 63.508 146.196 63.3099C146.492 63.0924 146.844 62.9641 147.211 62.9403C147.632 62.8842 148.06 62.9535 148.441 63.1393C148.858 63.3516 149.202 63.6833 149.428 64.0916C149.734 64.6285 149.92 65.225 149.971 65.84C150.027 66.3121 150.027 66.7892 149.971 67.2614C149.912 67.7039 149.787 68.1351 149.6 68.5406L148.384 68.2137C148.551 67.8472 148.666 67.4599 148.727 67.0624C148.777 66.6944 148.777 66.3216 148.727 65.9537C148.691 65.6187 148.6 65.292 148.455 64.9871C148.358 64.7749 148.198 64.5966 147.998 64.4754C147.828 64.3814 147.633 64.3416 147.44 64.3617C147.329 64.3719 147.221 64.4065 147.124 64.463C147.028 64.5195 146.945 64.5966 146.882 64.6886C146.743 64.903 146.655 65.1461 146.625 65.3993C146.563 65.714 146.52 66.032 146.496 66.3517C146.496 66.6928 146.41 67.0339 146.339 67.3893C146.283 67.7171 146.187 68.0368 146.053 68.3416C145.931 68.6338 145.74 68.8922 145.495 69.095C145.204 69.3099 144.856 69.4381 144.494 69.4645C144.078 69.5203 143.655 69.451 143.279 69.2655C142.864 69.0491 142.522 68.7184 142.292 68.3132C141.989 67.7849 141.804 67.1985 141.748 66.5933Z" fill="currentColor"/>
<path d="M0 84.4604L7.45066 79.8977L7.66517 81.4897L0.929545 85.5691L0.800839 84.6452L8.40881 86.7204L8.62332 88.1418L0.20021 85.896L0 84.4604Z" fill="currentColor"/>
<path d="M3.13185 93.8273L4.37601 98.0915L3.16045 98.4326L1.51587 92.7471L9.20964 90.5581L10.8113 96.1584L9.61006 96.4995L8.40881 92.3348L3.13185 93.8273ZM6.39241 92.7897L7.47926 96.5848L6.3066 96.926L5.20545 93.1166L6.39241 92.7897Z" fill="currentColor"/>
<path d="M4.64771 102.484L11.9697 99.2429L13.3139 102.228C13.5814 102.788 13.7276 103.399 13.7429 104.019C13.7581 104.547 13.6081 105.068 13.3136 105.508C13.0191 105.948 12.5945 106.287 12.0984 106.478C11.618 106.705 11.0814 106.789 10.5539 106.719C10.0235 106.635 9.52794 106.403 9.12382 106.051C8.66747 105.624 8.30688 105.106 8.06557 104.531L7.15033 102.356L8.02267 102.683L5.26264 103.777L4.64771 102.484ZM6.79281 107.245L8.5804 104.218L9.23823 105.639L7.43634 108.695L6.79281 107.245ZM7.85106 102.683L8.23718 101.801L9.20963 103.976C9.3955 104.469 9.74982 104.882 10.2107 105.142C10.4084 105.239 10.6262 105.29 10.8471 105.29C11.0679 105.29 11.2857 105.239 11.4834 105.142C11.6908 105.065 11.8775 104.942 12.0289 104.782C12.1803 104.621 12.2922 104.428 12.3558 104.218C12.4597 103.704 12.3787 103.171 12.127 102.711L11.1545 100.508L12.0841 100.806L7.85106 102.683Z" fill="currentColor"/>
<path d="M14.5868 120.081C14.2229 119.62 13.951 119.094 13.786 118.531C13.6305 118.011 13.5866 117.464 13.6573 116.925C13.715 116.393 13.8856 115.88 14.1578 115.418C14.4321 114.933 14.8075 114.511 15.259 114.182C15.7036 113.839 16.2149 113.593 16.7605 113.457C17.2842 113.35 17.8242 113.35 18.3479 113.457C18.8863 113.544 19.4017 113.737 19.8638 114.025C20.3681 114.329 20.8059 114.73 21.1508 115.205C21.509 115.665 21.7803 116.185 21.9517 116.74C22.1017 117.258 22.146 117.799 22.0822 118.334C22.0183 118.869 21.8475 119.385 21.5799 119.853C21.2932 120.334 20.9142 120.754 20.4644 121.09C20.0198 121.432 19.5085 121.679 18.9628 121.815C18.4387 121.946 17.8932 121.969 17.3596 121.884C16.8261 121.798 16.3157 121.605 15.8596 121.317C15.3573 120.993 14.9247 120.572 14.5868 120.081ZM14.8442 123.151C14.6767 122.932 14.5374 122.693 14.4295 122.44C14.3279 122.179 14.256 121.907 14.215 121.63C14.1788 121.304 14.1788 120.975 14.215 120.649C14.215 120.28 14.3008 119.867 14.3866 119.384L15.6594 120.407C15.5676 120.694 15.51 120.989 15.4878 121.289C15.4575 121.515 15.4575 121.745 15.4878 121.971C15.5416 122.151 15.6289 122.32 15.7452 122.469C15.9014 122.679 16.1033 122.853 16.3359 122.976C16.5686 123.099 16.8261 123.168 17.0894 123.179L16.832 124.217C16.4401 124.205 16.0562 124.103 15.7111 123.918C15.3659 123.733 15.0691 123.47 14.8442 123.151ZM15.6165 119.299C15.8429 119.608 16.1298 119.87 16.4602 120.066C16.7686 120.246 17.1082 120.366 17.4613 120.422C17.8153 120.492 18.1798 120.492 18.5338 120.422C18.9057 120.315 19.2547 120.142 19.5635 119.91C19.8751 119.685 20.1377 119.4 20.3357 119.071C20.52 118.761 20.6415 118.419 20.6932 118.062C20.7407 117.71 20.7164 117.353 20.6217 117.01C20.5142 116.645 20.3396 116.303 20.1069 116.001C19.884 115.688 19.5963 115.427 19.2632 115.234C18.9601 115.043 18.6182 114.921 18.2621 114.878C17.9081 114.807 17.5435 114.807 17.1896 114.878C16.8161 114.973 16.4659 115.143 16.1599 115.376C15.8446 115.602 15.5814 115.893 15.3877 116.229C15.2053 116.539 15.084 116.882 15.0301 117.238C14.9827 117.594 15.007 117.957 15.1017 118.304C15.2077 118.665 15.3824 119.003 15.6165 119.299Z" fill="currentColor"/>
<path d="M22.5807 129.035C22.2385 128.726 21.9622 128.351 21.7681 127.934C21.5741 127.516 21.4662 127.064 21.4509 126.605C21.4617 126.118 21.5726 125.639 21.7767 125.197C21.9809 124.754 22.2739 124.358 22.6379 124.032L25.7411 120.834L26.8137 121.857L23.6675 125.098C23.1782 125.517 22.8707 126.108 22.8095 126.747C22.8197 127.019 22.8873 127.287 23.008 127.532C23.1287 127.777 23.2998 127.993 23.5102 128.168C23.6886 128.371 23.9085 128.532 24.1553 128.643C24.402 128.753 24.6697 128.809 24.9403 128.808C25.58 128.711 26.1608 128.382 26.5706 127.884L29.6595 124.686L30.7178 125.695L27.5859 128.922C27.2732 129.294 26.8875 129.6 26.4524 129.82C26.0173 130.04 25.5418 130.169 25.0547 130.201C24.585 130.18 24.1243 130.066 23.6995 129.866C23.2746 129.666 22.8943 129.384 22.5807 129.035Z" fill="currentColor"/>
<path d="M27.8435 133.626L35.4086 129.206L36.6098 130.044L34.9224 138.573L33.6496 137.677L35.3085 130.044L35.7947 130.386L29.0877 134.465L27.8435 133.626ZM30.2746 133.086L31.2757 132.376L34.7936 134.849L34.4504 136.029L30.2746 133.086Z" fill="currentColor"/>
<path d="M38.1973 140.506L41.7581 133.399L44.9043 134.962C45.6176 135.281 46.2413 135.769 46.7205 136.384C47.1503 136.938 47.4086 137.605 47.4641 138.303C47.5237 139.036 47.3698 139.772 47.0208 140.421C46.7079 141.088 46.2123 141.655 45.5907 142.055C44.9925 142.433 44.2972 142.63 43.5886 142.624C42.8054 142.614 42.0358 142.419 41.3434 142.055L38.1973 140.506ZM40.0421 140.037L41.7724 140.904C42.2567 141.146 42.7893 141.277 43.3312 141.288C43.8076 141.281 44.2728 141.143 44.6755 140.89C45.101 140.605 45.4418 140.213 45.6622 139.753C45.8897 139.314 45.9935 138.823 45.9625 138.331C45.9231 137.861 45.7495 137.413 45.462 137.038C45.1398 136.606 44.7114 136.263 44.2179 136.043L42.4875 135.19L40.0421 140.037Z" fill="currentColor"/>
<path d="M49.2944 145.524L51.7112 137.891L54.8431 138.886C55.4475 139.054 56.0084 139.35 56.4877 139.753C56.8844 140.086 57.1689 140.533 57.3028 141.032C57.4653 141.545 57.4653 142.096 57.3028 142.61C57.1682 143.117 56.8784 143.569 56.4737 143.905C56.0689 144.242 55.5691 144.444 55.0433 144.486C54.4192 144.536 53.7914 144.459 53.1985 144.258L50.796 143.576L51.6111 143.15L50.7102 145.993L49.2944 145.524ZM51.5682 143.278L51.1535 142.396L53.4416 143.121C53.9348 143.306 54.4786 143.306 54.9718 143.121C55.1707 143.032 55.3463 142.898 55.4851 142.73C55.6239 142.563 55.7223 142.366 55.7726 142.155C55.8515 141.948 55.8809 141.727 55.8585 141.507C55.8362 141.288 55.7627 141.076 55.6439 140.89C55.3252 140.471 54.8704 140.175 54.3569 140.051L52.0831 139.34L52.9125 138.886L51.5682 143.278ZM54.2854 147.101L53.2271 143.733L54.743 144.216L55.8155 147.57L54.2854 147.101Z" fill="currentColor"/>
<path d="M63.6381 149.262C63.0537 149.188 62.4899 148.999 61.9792 148.707C61.5037 148.434 61.0888 148.067 60.7595 147.63C60.4302 147.193 60.1932 146.694 60.0629 146.163C59.9313 145.623 59.907 145.063 59.9914 144.514C60.0708 143.959 60.2656 143.427 60.5634 142.951C60.8444 142.499 61.214 142.107 61.6503 141.799C62.0834 141.501 62.5682 141.284 63.0803 141.16C63.661 141.045 64.2587 141.045 64.8393 141.16C65.4171 141.243 65.9745 141.431 66.4839 141.714C66.9587 141.982 67.3764 142.339 67.7138 142.766C68.0325 143.192 68.2655 143.674 68.4002 144.187C68.5341 144.732 68.5588 145.297 68.4729 145.85C68.387 146.404 68.1922 146.935 67.8997 147.414C67.6226 147.869 67.2523 148.262 66.8128 148.565C66.3844 148.875 65.8983 149.097 65.3827 149.219C64.809 149.342 64.2172 149.357 63.6381 149.262ZM63.824 147.983C64.2019 148.054 64.5901 148.054 64.968 147.983C65.3147 147.903 65.6411 147.753 65.9262 147.542C66.2149 147.326 66.4579 147.055 66.6412 146.746C66.8479 146.418 66.9797 146.05 67.0273 145.666C67.0922 145.289 67.0922 144.905 67.0273 144.529C66.9429 144.179 66.7872 143.85 66.5697 143.562C66.3577 143.275 66.0903 143.034 65.7832 142.851C65.4541 142.658 65.0894 142.532 64.7106 142.482C64.332 142.417 63.9452 142.417 63.5666 142.482C63.2135 142.563 62.882 142.718 62.5941 142.937C62.3014 143.147 62.0535 143.412 61.8648 143.718C61.6581 144.046 61.5263 144.415 61.4787 144.799C61.4065 145.169 61.4065 145.551 61.4787 145.922C61.5667 146.275 61.722 146.607 61.9363 146.902C62.15 147.193 62.4229 147.435 62.7371 147.613C63.0748 147.788 63.4444 147.894 63.824 147.926V147.983Z" fill="currentColor"/>
<path d="M77.7385 150.015L77.095 142.07L80.5986 141.8C81.398 141.722 82.204 141.845 82.944 142.155C83.6041 142.409 84.1755 142.849 84.5885 143.42C85.0171 144.016 85.2653 144.721 85.3036 145.453C85.384 146.184 85.2551 146.923 84.9318 147.585C84.614 148.215 84.1167 148.739 83.5017 149.091C82.8228 149.491 82.0582 149.725 81.2708 149.774L77.7385 150.015ZM79.1686 148.594L81.0992 148.437C81.6383 148.398 82.1615 148.238 82.6293 147.968C83.0353 147.717 83.3623 147.358 83.5732 146.931C83.7859 146.489 83.8748 145.998 83.8306 145.509C83.7996 145.001 83.6317 144.51 83.3444 144.088C83.0538 143.718 82.6755 143.425 82.2432 143.235C81.7376 143.044 81.1944 142.971 80.6558 143.022L78.7252 143.178L79.1686 148.594Z" fill="currentColor"/>
<path d="M90.9666 147.059L95.3569 146.05L95.643 147.258L89.794 148.679L87.9778 140.918L93.6981 139.596L93.9841 140.819L89.6939 141.8L90.9666 147.059ZM90.0943 143.775L93.9841 142.88L94.2558 144.06L90.3803 144.969L90.0943 143.775Z" fill="currentColor"/>
<path d="M104.838 144.031L101.535 136.796L102.879 136.185L105.739 142.269L109.543 140.52L110.072 141.657L104.838 144.031Z" fill="currentColor"/>
<path d="M113.877 137.976L117.695 135.588L118.367 136.64L113.29 139.824L109 133.101L113.948 130.002L114.62 131.054L110.931 133.371L113.877 137.976ZM111.946 135.133L115.321 133.03L115.964 134.053L112.604 136.171L111.946 135.133Z" fill="currentColor"/>
<path d="M121.685 134.138L116.708 127.941L117.866 127.017L122.843 133.257L121.685 134.138Z" fill="currentColor"/>
<path d="M127.534 129.121L122.829 124.316L120.927 126.15L120.126 125.254L124.988 120.55L125.875 121.445L123.973 123.279L128.678 128.097L127.534 129.121Z" fill="currentColor"/>
<path d="M135.113 120.962C134.844 121.339 134.502 121.66 134.106 121.904C133.711 122.148 133.27 122.311 132.811 122.383C132.327 122.419 131.842 122.358 131.383 122.204C130.923 122.05 130.5 121.807 130.136 121.488L126.561 118.744L127.477 117.579L130.994 120.294C131.463 120.74 132.09 120.985 132.739 120.976C133.276 120.865 133.756 120.569 134.094 120.14C134.432 119.71 134.606 119.175 134.584 118.631C134.421 118.005 134.028 117.462 133.483 117.11L129.965 114.395L130.866 113.244L134.427 116.001C134.834 116.271 135.181 116.621 135.447 117.029C135.712 117.437 135.891 117.895 135.971 118.375C136.015 118.842 135.961 119.312 135.813 119.757C135.666 120.202 135.427 120.612 135.113 120.962Z" fill="currentColor"/>
<path d="M139.818 114.168L132.825 110.259L134.441 107.416C134.735 106.867 135.139 106.383 135.628 105.994C136.041 105.678 136.538 105.49 137.058 105.454C137.599 105.434 138.135 105.567 138.602 105.838C139.076 106.084 139.464 106.465 139.718 106.933C139.935 107.373 140.029 107.865 139.99 108.354C139.911 108.971 139.707 109.566 139.389 110.102L138.188 112.305L137.93 111.41L140.547 112.831L139.818 114.168ZM138.073 111.495L137.115 111.708L138.288 109.633C138.611 109.205 138.763 108.674 138.717 108.141C138.672 107.926 138.578 107.724 138.441 107.551C138.305 107.379 138.13 107.24 137.93 107.146C137.746 107.028 137.536 106.953 137.318 106.929C137.1 106.904 136.879 106.93 136.672 107.004C136.191 107.222 135.805 107.606 135.585 108.084L134.412 110.145L134.083 109.235L138.073 111.495ZM142.364 109.619L138.846 109.96L139.618 108.539L143.15 108.198L142.364 109.619Z" fill="currentColor"/>
<path d="M144.523 105.469L138.316 99.2854L138.846 97.864L147.612 97.3381L147.054 98.7595L139.203 99.0722L139.418 98.5179L145.138 103.948L144.523 105.469ZM143.379 103.265L142.435 102.469L143.965 98.461H145.209L143.379 103.265Z" fill="currentColor"/>
<path d="M149.228 91.4536C149.095 92.0425 148.873 92.608 148.57 93.1308C148.321 93.5839 147.986 93.9846 147.583 94.3106L146.582 93.5572C147.291 92.9292 147.79 92.101 148.012 91.1835C148.093 90.8486 148.121 90.5036 148.098 90.1601C148.082 89.9344 148.003 89.7177 147.869 89.5347C147.748 89.3811 147.575 89.2753 147.383 89.2362C147.275 89.2073 147.162 89.2038 147.053 89.226C146.944 89.2482 146.841 89.2955 146.754 89.3641C146.545 89.5181 146.373 89.7174 146.253 89.9469C146.11 90.1885 145.967 90.4728 145.81 90.7855C145.668 91.1034 145.505 91.412 145.324 91.7094C145.16 92.0088 144.958 92.2859 144.723 92.5338C144.503 92.7616 144.234 92.9366 143.936 93.0455C143.581 93.1459 143.205 93.1459 142.85 93.0455C142.437 92.9543 142.06 92.747 141.763 92.4485C141.447 92.1061 141.234 91.6827 141.148 91.2261C141.052 90.6154 141.081 89.9917 141.234 89.3925C141.332 88.8976 141.501 88.4191 141.734 87.9711C141.936 87.5711 142.201 87.2063 142.521 86.8909L143.536 87.6016C143.26 87.8914 143.025 88.2164 142.835 88.5681C142.661 88.8971 142.527 89.2454 142.435 89.6057C142.376 89.9348 142.376 90.2716 142.435 90.6007C142.456 90.8344 142.545 91.0569 142.692 91.2403C142.821 91.3822 142.991 91.4813 143.178 91.5246C143.285 91.5544 143.397 91.5597 143.506 91.54C143.615 91.5203 143.718 91.4761 143.808 91.4109C144.017 91.2569 144.188 91.0576 144.308 90.8281C144.466 90.5561 144.609 90.2762 144.737 89.9895C144.895 89.6626 145.052 89.3641 145.238 89.0514C145.405 88.7622 145.601 88.4907 145.824 88.2412C146.046 88.0164 146.314 87.8418 146.611 87.7295C146.961 87.6288 147.333 87.6288 147.683 87.7295C148.095 87.8127 148.469 88.0214 148.756 88.3265C149.074 88.6671 149.288 89.0913 149.371 89.5489C149.458 90.1867 149.41 90.8357 149.228 91.4536Z" fill="currentColor"/>
</g>
<defs>
<clipPath id="clip0_137_2">
<rect width="150" height="150" fill="white"/>
</clipPath>
</defs>
</svg>
